# xmcd
#
# Track frame offsets: 
#        150
#        31810
#        47550
#        64848
#        78257
#        99859
#        118111
#        127037
#
# Disc length: 1867 seconds
#
# Revision: 2
# Processed by: cddbd v1.5.2PL0 Copyright (c) Steve Scherf et al.
# Submitted via: ExactAudioCopy v0.99pb5
#
DISCID=5f074908
DTITLE=Evil Incarnate - Waiting For His Return
DYEAR=2005
DGENRE=Death Metal
TTITLE0=Waiting For His Return
TTITLE1=Into Hands Of Sinners
TTITLE2=Temple Of Blasphemy
TTITLE3=Forced Inside Your Church
TTITLE4=Did Not Die For Me
TTITLE5=Terror In The Holy Land (9-11)
TTITLE6=Piece By Piece
TTITLE7=Tormentor
EXTD=
EXTT0=
EXTT1=
EXTT2=
EXTT3=
EXTT4=
EXTT5=
EXTT6=
EXTT7=
PLAYORDER=
